<svg width="19" height="18" viewBox="0 0 19 18" fill="none" xmlns="http://www.w3.org/2000/svg">
<path d="M20.243 1.08675C20.2429 1.00273 20.2207 0.920215 20.1785 0.847579C20.1362 0.774943 20.0755 0.714779 20.0025 0.673197C19.9295 0.631616 19.8468 0.6101 19.7628 0.610833C19.6788 0.611567 19.5964 0.634525 19.5242 0.677375C18.8542 1.07637 18.1264 1.36925 17.3668 1.54564C16.5367 0.753082 15.4318 0.312907 14.2841 0.317502C13.6607 0.318388 13.0443 0.448661 12.4739 0.700077C11.9035 0.951493 11.3915 1.31858 10.9702 1.7781C10.549 2.23763 10.2278 2.77958 10.0268 3.36968C9.82588 3.95977 9.7496 4.58516 9.80284 5.20625C6.92493 4.90039 4.28434 3.47009 2.45591 1.2267C2.40711 1.16711 2.34457 1.12024 2.27367 1.09013C2.20277 1.06002 2.12562 1.04757 2.04884 1.05384C1.97207 1.06012 1.89796 1.08493 1.83289 1.12615C1.76781 1.16737 1.71371 1.22376 1.67523 1.29049C1.28025 1.97929 1.07248 2.75949 1.07259 3.5535C1.07143 4.42494 1.32346 5.27795 1.79805 6.00882L1.74093 5.97741C1.66633 5.94079 1.58351 5.92417 1.50057 5.92918C1.41763 5.93418 1.3374 5.96064 1.26776 6.00597C1.19519 6.05315 1.13564 6.1178 1.09455 6.19398C1.05346 6.27017 1.03216 6.35545 1.0326 6.442C1.0288 6.55434 1.03546 6.66764 1.05355 6.77808C1.09855 7.40664 1.27602 8.01856 1.57433 8.57366C1.87263 9.12875 2.28501 9.61445 2.78437 9.99884C2.7235 10.0168 2.66684 10.0467 2.6177 10.0868C2.56856 10.1269 2.52794 10.1765 2.49823 10.2325C2.46851 10.2886 2.4503 10.35 2.44467 10.4132C2.43904 10.4764 2.4461 10.5401 2.46543 10.6005C2.68536 11.2863 3.06741 11.9089 3.5792 12.4155C4.09099 12.9222 4.71741 13.2979 5.40534 13.5109C4.00059 14.2974 2.38272 14.6184 0.784121 14.4277C0.676998 14.4144 0.568502 14.4378 0.476437 14.4941C0.384372 14.5505 0.314207 14.6365 0.277456 14.738C0.240704 14.8396 0.239549 14.9505 0.27418 15.0528C0.308811 15.155 0.377171 15.2425 0.468042 15.3008C2.38112 16.5326 4.60851 17.1874 6.88387 17.1868C9.46502 17.2153 11.9833 16.3901 14.0469 14.8395C16.1106 13.2889 17.6041 11.0998 18.2951 8.61266C18.6178 7.53019 18.7825 6.40583 18.7844 5.27575C18.7844 5.1615 18.7844 5.0425 18.7816 4.92159C19.2767 4.41812 19.6622 3.81753 19.9137 3.15768C20.1653 2.49783 20.2774 1.79208 20.243 1.08675ZM17.9352 4.45033C17.857 4.54279 17.8171 4.66167 17.8238 4.78259C17.8758 5.9861 17.7265 7.18985 17.3821 8.34419C16.7676 10.6445 15.3992 12.6723 13.4959 14.1028C11.5926 15.5334 9.26435 16.2841 6.88387 16.2347C5.43107 16.2348 3.99292 15.9444 2.65394 15.3807C4.22758 15.2062 5.72041 14.5925 6.96194 13.6099C7.03918 13.5492 7.09574 13.4661 7.12386 13.3719C7.15198 13.2778 7.15027 13.1773 7.11898 13.0841C7.0877 12.991 7.02835 12.9098 6.9491 12.8517C6.86984 12.7937 6.77456 12.7615 6.67632 12.7598C6.06697 12.7499 5.47055 12.5824 4.94505 12.2738C4.41955 11.9652 3.98284 11.5258 3.67738 10.9985C4.082 10.9994 4.48377 10.9442 4.87125 10.8328C4.97337 10.8029 5.06252 10.7396 5.12446 10.6531C5.1864 10.5665 5.21756 10.4617 5.21295 10.3554C5.20835 10.2491 5.16825 10.1474 5.09907 10.0665C5.02988 9.98568 4.93559 9.93034 4.83126 9.90935C4.14978 9.77298 3.52375 9.43838 3.03172 8.94754C2.5397 8.4567 2.20359 7.83148 2.06557 7.15032C2.46989 7.28143 2.89076 7.35452 3.31561 7.36739C3.42028 7.37514 3.52437 7.34609 3.60989 7.28524C3.69542 7.2244 3.75701 7.1356 3.78401 7.03418C3.81511 6.93572 3.81335 6.82982 3.77901 6.73245C3.74466 6.63508 3.67959 6.55152 3.5936 6.49437C3.10925 6.17196 2.7124 5.73447 2.43858 5.22108C2.16477 4.70768 2.02254 4.13439 2.02463 3.55255C2.02463 3.15935 2.08842 2.76902 2.21504 2.39772C4.32576 4.67694 7.24316 6.04169 10.3455 6.20114C10.4196 6.20906 10.4945 6.19751 10.5628 6.16762C10.6311 6.13774 10.6904 6.09055 10.7349 6.03072C10.7821 5.97414 10.8155 5.90737 10.8325 5.83567C10.8496 5.76397 10.8497 5.68929 10.8329 5.61753C10.7701 5.35494 10.7382 5.08591 10.7377 4.81591C10.7388 3.87574 11.1125 2.97434 11.7772 2.30936C12.4418 1.64439 13.343 1.27011 14.2832 1.26859C14.7674 1.26722 15.2467 1.36625 15.6908 1.55945C16.1349 1.75264 16.5341 2.0358 16.8632 2.39105C16.9185 2.45002 16.9879 2.4939 17.0648 2.51855C17.1418 2.54321 17.2238 2.54782 17.303 2.53196C17.9786 2.39894 18.6356 2.18443 19.2595 1.89314C19.0973 2.86356 18.6346 3.75827 17.9352 4.45033Z" fill="black"/>
</svg>
